<svg xmlns="http://www.w3.org/2000/svg" xmlns:xlink="http://www.w3.org/1999/xlink" width="512" zoomAndPan="magnify" viewBox="0 0 375 157.92" height="200" preserveAspectRatio="xMidYMid meet" version="1.0"><defs><g/><clipPath id="3ace117cc2"><path d="M 35 0 L 344 0 L 344 149.925781 L 35 149.925781 Z M 35 0 " clip-rule="nonzero"/></clipPath><clipPath id="c90e92441a"><rect x="0" width="309" y="0" height="150"/></clipPath><clipPath id="a5a179972e"><path d="M 316 51 L 339 51 L 339 122 L 316 122 Z M 316 51 " clip-rule="nonzero"/></clipPath><clipPath id="de8e68092e"><path d="M 304.121094 61.867188 L 334.621094 51.433594 L 355 111.011719 L 324.5 121.445312 Z M 304.121094 61.867188 " clip-rule="nonzero"/></clipPath><clipPath id="b6c2aa8a0a"><path d="M 304.121094 61.867188 L 334.621094 51.433594 L 355 111.011719 L 324.5 121.445312 Z M 304.121094 61.867188 " clip-rule="nonzero"/></clipPath><clipPath id="15097b6bd1"><path d="M 316 55 L 329 55 L 329 122 L 316 122 Z M 316 55 " clip-rule="nonzero"/></clipPath><clipPath id="f15c047a8d"><path d="M 304.121094 61.867188 L 334.621094 51.433594 L 355 111.011719 L 324.5 121.445312 Z M 304.121094 61.867188 " clip-rule="nonzero"/></clipPath><clipPath id="37cec5ebe1"><path d="M 304.121094 61.867188 L 334.621094 51.433594 L 355 111.011719 L 324.5 121.445312 Z M 304.121094 61.867188 " clip-rule="nonzero"/></clipPath></defs><g clip-path="url(#3ace117cc2)"><g transform="matrix(1, 0, 0, 1, 35, 0.000000000000004653)"><g clip-path="url(#c90e92441a)"><g fill="#0046be" fill-opacity="1"><g transform="translate(1.384773, 120.174782)"><g><path d="M 50.421875 1.796875 C 37.078125 1.796875 26.707031 -1.835938 19.3125 -9.109375 C 11.914062 -16.378906 8.21875 -26.6875 8.21875 -40.03125 L 8.21875 -89.8125 L 33.609375 -89.8125 L 33.609375 -40.796875 C 33.609375 -26.429688 39.296875 -19.25 50.671875 -19.25 C 61.960938 -19.25 67.609375 -26.429688 67.609375 -40.796875 L 67.609375 -89.8125 L 92.625 -89.8125 L 92.625 -40.03125 C 92.625 -26.6875 88.925781 -16.378906 81.53125 -9.109375 C 74.132812 -1.835938 63.765625 1.796875 50.421875 1.796875 Z M 50.421875 1.796875 "/></g></g></g><g fill="#0046be" fill-opacity="1"><g transform="translate(92.592172, 120.174782)"><g><path d="M 39.390625 -24.375 L 32.203125 -17.0625 L 32.203125 0 L 7.828125 0 L 7.828125 -95.203125 L 32.203125 -95.203125 L 32.203125 -45.28125 L 57.09375 -69.53125 L 85.953125 -69.53125 L 57.09375 -39.765625 L 88.390625 0 L 58.890625 0 Z M 39.390625 -24.375 "/></g></g></g><g fill="#0046be" fill-opacity="1"><g transform="translate(170.971427, 120.174782)"><g><path d="M 7.828125 -95.203125 L 32.203125 -95.203125 L 32.203125 0 L 7.828125 0 Z M 7.828125 -95.203125 "/></g></g></g><g fill="#0046be" fill-opacity="1"><g transform="translate(201.501698, 120.174782)"><g><path d="M 37.46875 -70.6875 C 49.007812 -70.6875 57.816406 -68.054688 63.890625 -62.796875 C 69.960938 -57.535156 73 -49.476562 73 -38.625 L 73 0 L 50.296875 0 L 50.296875 -8.984375 C 46.785156 -2.222656 39.941406 1.15625 29.765625 1.15625 C 24.378906 1.15625 19.71875 0.214844 15.78125 -1.65625 C 11.84375 -3.539062 8.867188 -6.085938 6.859375 -9.296875 C 4.847656 -12.503906 3.84375 -16.160156 3.84375 -20.265625 C 3.84375 -26.859375 6.363281 -31.972656 11.40625 -35.609375 C 16.457031 -39.242188 24.242188 -41.0625 34.765625 -41.0625 L 48.625 -41.0625 C 48.195312 -48.414062 43.28125 -52.09375 33.875 -52.09375 C 30.53125 -52.09375 27.148438 -51.554688 23.734375 -50.484375 C 20.316406 -49.410156 17.410156 -47.9375 15.015625 -46.0625 L 6.796875 -62.609375 C 10.648438 -65.171875 15.332031 -67.15625 20.84375 -68.5625 C 26.363281 -69.976562 31.90625 -70.6875 37.46875 -70.6875 Z M 36.5625 -14.234375 C 39.382812 -14.234375 41.863281 -14.914062 44 -16.28125 C 46.144531 -17.65625 47.6875 -19.671875 48.625 -22.328125 L 48.625 -28.359375 L 38.109375 -28.359375 C 31.003906 -28.359375 27.453125 -26.003906 27.453125 -21.296875 C 27.453125 -19.160156 28.265625 -17.445312 29.890625 -16.15625 C 31.515625 -14.875 33.738281 -14.234375 36.5625 -14.234375 Z M 36.5625 -14.234375 "/></g></g></g><g fill="#0046be" fill-opacity="1"><g transform="translate(272.440608, 120.174782)"><g><path d="M 7.828125 -69.53125 L 32.203125 -69.53125 L 32.203125 0 L 7.828125 0 Z M 20.015625 -77.234375 C 15.566406 -77.234375 11.972656 -78.472656 9.234375 -80.953125 C 6.492188 -83.429688 5.125 -86.507812 5.125 -90.1875 C 5.125 -93.863281 6.492188 -96.941406 9.234375 -99.421875 C 11.972656 -101.910156 15.566406 -103.15625 20.015625 -103.15625 C 24.460938 -103.15625 28.050781 -101.976562 30.78125 -99.625 C 33.519531 -97.269531 34.890625 -94.253906 34.890625 -90.578125 C 34.890625 -86.722656 33.519531 -83.535156 30.78125 -81.015625 C 28.050781 -78.492188 24.460938 -77.234375 20.015625 -77.234375 Z M 20.015625 -77.234375 "/></g></g></g></g></g></g><g clip-path="url(#a5a179972e)"><g clip-path="url(#de8e68092e)"><g clip-path="url(#b6c2aa8a0a)"><path fill="#efc314" d="M 319.109375 56.738281 L 334.347656 51.527344 L 329.265625 76.136719 L 338.199219 73.082031 L 324.445312 121.242188 L 326.210938 86.933594 L 316.652344 90.738281 Z M 319.109375 56.738281 " fill-opacity="1" fill-rule="nonzero"/></g></g></g><g clip-path="url(#15097b6bd1)"><g clip-path="url(#f15c047a8d)"><g clip-path="url(#37cec5ebe1)"><path fill="#ffffff" d="M 319.109375 56.738281 L 321.734375 55.839844 L 316.652344 90.738281 Z M 324.445312 121.242188 L 328.050781 86.304688 L 326.210938 86.933594 Z M 324.445312 121.242188 " fill-opacity="1" fill-rule="nonzero"/></g></g></g></svg>